<svg width="4290" height="1669" xmlns="http://www.w3.org/2000/svg" xmlns:xlink="http://www.w3.org/1999/xlink" xml:space="preserve" overflow="hidden"><g transform="translate(-64 -563)"><g><rect x="1735" y="573" width="2596" height="1647" stroke="#58A725" stroke-width="18.3333" stroke-linecap="butt" stroke-linejoin="miter" stroke-miterlimit="8" stroke-opacity="1" fill="#E3F1D9" fill-opacity="1"/><rect x="77" y="573" width="1584" height="1647" stroke="#7E7E7E" stroke-width="18.3333" stroke-linecap="butt" stroke-linejoin="miter" stroke-miterlimit="8" stroke-opacity="1" fill="#F2F2F2" fill-opacity="1"/><path d="M1578 995.25 1809.46 995.25 1809.46 1022.75 1578 1022.75ZM1795.71 967.75 1878.21 1009 1795.71 1050.25Z" fill="#385723" fill-rule="nonzero" fill-opacity="1"/><path d="M480.5 793.391C480.5 781.853 489.853 772.5 501.392 772.5L783.608 772.5C795.146 772.5 804.5 781.853 804.5 793.391L804.5 1252.61C804.5 1264.15 795.146 1273.5 783.608 1273.5L501.392 1273.5C489.853 1273.5 480.5 1264.15 480.5 1252.61Z" stroke="#042433" stroke-width="6.875" stroke-linecap="butt" stroke-linejoin="miter" stroke-miterlimit="8" stroke-opacity="1" fill="#385723" fill-rule="evenodd" fill-opacity="1"/><path d="M878 823.016C878 806.991 890.991 794 907.016 794L1548.98 794C1565.01 794 1578 806.991 1578 823.016L1578 1214.98C1578 1231.01 1565.01 1244 1548.98 1244L907.016 1244C890.991 1244 878 1231.01 878 1214.98Z" fill="#538234" fill-rule="evenodd" fill-opacity="1"/><path d="M77.4998 601C77.4998 585.812 89.8122 573.5 105 573.5L1091 573.5C1106.19 573.5 1118.5 585.812 1118.5 601L1118.5 710.999C1118.5 726.187 1106.19 738.5 1091 738.5L105 738.5C89.8122 738.5 77.4998 726.187 77.4998 710.999Z" stroke="#7E7E7E" stroke-width="6.875" stroke-linecap="butt" stroke-linejoin="miter" stroke-miterlimit="8" stroke-opacity="1" fill="#7E7E7E" fill-rule="evenodd" fill-opacity="1"/><text fill="#FFFFFF" fill-opacity="1" font-family="Avenir Book,Avenir Book_MSFontService,sans-serif" font-style="normal" font-variant="normal" font-weight="700" font-stretch="normal" font-size="83" text-anchor="start" direction="ltr" writing-mode="lr-tb" unicode-bidi="normal" text-decoration="none" transform="matrix(1 0 0 1 190.847 681)">Input / Listening step</text><g><g><g><path d="M350 953.125C350 983.501 325.376 1008.13 295 1008.13 264.624 1008.13 240 983.501 240 953.125 240 922.749 264.624 898.125 295 898.125 325.376 898.125 350 922.749 350 953.125Z" fill="#385723" fill-rule="nonzero" fill-opacity="1"/><path d="M405 1131.88 405 1076.88C405 1068.63 400.875 1060.38 394 1054.88 378.875 1042.5 359.625 1034.25 340.375 1028.75 326.625 1024.63 311.5 1021.88 295 1021.88 279.875 1021.88 264.75 1024.63 249.625 1028.75 230.375 1034.25 211.125 1043.88 196 1054.88 189.125 1060.38 185 1068.63 185 1076.88L185 1131.88 405 1131.88Z" fill="#385723" fill-rule="nonzero" fill-opacity="1"/></g></g></g><text fill="#385723" fill-opacity="1" font-family="Avenir Book,Avenir Book_MSFontService,sans-serif" font-style="normal" font-variant="normal" font-weight="700" font-stretch="normal" font-size="83" text-anchor="start" direction="ltr" writing-mode="lr-tb" unicode-bidi="normal" text-decoration="none" transform="matrix(1 0 0 1 198.407 1231)">User</text><path d="M3.4375-4.49388e-06 3.43783 253.141-3.43717 253.141-3.4375 4.49388e-06ZM13.7503 248.557 0.000360892 276.057-13.7497 248.557Z" fill="#E4F2DA" fill-rule="nonzero" fill-opacity="1" transform="matrix(1 0 0 -1 637.5 1093.56)"/><text fill="#E4F2DA" fill-opacity="1" font-family="Avenir Book,Avenir Book_MSFontService,sans-serif" font-style="normal" font-variant="normal" font-weight="700" font-stretch="normal" font-size="64" text-anchor="start" direction="ltr" writing-mode="lr-tb" unicode-bidi="normal" text-decoration="underline" transform="matrix(1 0 0 1 495.729 1193)">Bright</text><text fill="#FFFFFF" fill-opacity="1" font-family="Avenir Book,Avenir Book_MSFontService,sans-serif" font-style="normal" font-variant="normal" font-weight="700" font-stretch="normal" font-size="64" text-anchor="start" direction="ltr" writing-mode="lr-tb" unicode-bidi="normal" text-decoration="none" transform="matrix(1 0 0 1 1175.1 1212)">bar</text><g><g><g><path d="M716.906 1183.21C719.219 1185.52 719.219 1189.11 716.906 1191.42L707.078 1194.66 705.344 1192.92 708.581 1183.09C711.009 1180.9 714.594 1180.9 716.906 1183.21ZM762.347 1122.85 704.534 1180.78 697.25 1202.75 719.334 1195.47 777.147 1137.65" fill="#E4F2DA" fill-rule="nonzero" fill-opacity="1"/><path d="M788.478 1119.73 780.269 1111.52C778.419 1109.67 775.528 1109.67 773.678 1111.52L765.584 1119.62 780.269 1134.3 788.362 1126.21C790.328 1124.47 790.328 1121.58 788.478 1119.73Z" fill="#E4F2DA" fill-rule="nonzero" fill-opacity="1"/></g></g></g><text fill="#FFFFFF" fill-opacity="1" font-family="Avenir Book,Avenir Book_MSFontService,sans-serif" font-style="normal" font-variant="normal" font-weight="700" font-stretch="normal" font-size="55" text-anchor="start" direction="ltr" writing-mode="lr-tb" unicode-bidi="normal" text-decoration="none" transform="matrix(1 0 0 1 950.451 1136)">1</text><text fill="#FFFFFF" fill-opacity="1" font-family="Avenir Book,Avenir Book_MSFontService,sans-serif" font-style="normal" font-variant="normal" font-weight="700" font-stretch="normal" font-size="55" text-anchor="start" direction="ltr" writing-mode="lr-tb" unicode-bidi="normal" text-decoration="none" transform="matrix(1 0 0 1 981.961 1136)">-</text><text fill="#FFFFFF" fill-opacity="1" font-family="Avenir Book,Avenir Book_MSFontService,sans-serif" font-style="normal" font-variant="normal" font-weight="700" font-stretch="normal" font-size="55" text-anchor="start" direction="ltr" writing-mode="lr-tb" unicode-bidi="normal" text-decoration="none" transform="matrix(1 0 0 1 1001.44 1136)">4</text><text fill="#FFFFFF" fill-opacity="1" font-family="Avenir Book,Avenir Book_MSFontService,sans-serif" font-style="normal" font-variant="normal" font-weight="700" font-stretch="normal" font-size="55" text-anchor="start" direction="ltr" writing-mode="lr-tb" unicode-bidi="normal" text-decoration="none" transform="matrix(1 0 0 1 1097.78 1139)">5</text><text fill="#FFFFFF" fill-opacity="1" font-family="Avenir Book,Avenir Book_MSFontService,sans-serif" font-style="normal" font-variant="normal" font-weight="700" font-stretch="normal" font-size="55" text-anchor="start" direction="ltr" writing-mode="lr-tb" unicode-bidi="normal" text-decoration="none" transform="matrix(1 0 0 1 1129.29 1139)">-</text><text fill="#FFFFFF" fill-opacity="1" font-family="Avenir Book,Avenir Book_MSFontService,sans-serif" font-style="normal" font-variant="normal" font-weight="700" font-stretch="normal" font-size="55" text-anchor="start" direction="ltr" writing-mode="lr-tb" unicode-bidi="normal" text-decoration="none" transform="matrix(1 0 0 1 1148.77 1139)">8</text><text fill="#FFFFFF" fill-opacity="1" font-family="Avenir Book,Avenir Book_MSFontService,sans-serif" font-style="normal" font-variant="normal" font-weight="700" font-stretch="normal" font-size="55" text-anchor="start" direction="ltr" writing-mode="lr-tb" unicode-bidi="normal" text-decoration="none" transform="matrix(1 0 0 1 1228.46 1140)">9</text><text fill="#FFFFFF" fill-opacity="1" font-family="Avenir Book,Avenir Book_MSFontService,sans-serif" font-style="normal" font-variant="normal" font-weight="700" font-stretch="normal" font-size="55" text-anchor="start" direction="ltr" writing-mode="lr-tb" unicode-bidi="normal" text-decoration="none" transform="matrix(1 0 0 1 1259.97 1140)">-</text><text fill="#FFFFFF" fill-opacity="1" font-family="Avenir Book,Avenir Book_MSFontService,sans-serif" font-style="normal" font-variant="normal" font-weight="700" font-stretch="normal" font-size="55" text-anchor="start" direction="ltr" writing-mode="lr-tb" unicode-bidi="normal" text-decoration="none" transform="matrix(1 0 0 1 1279.45 1140)">12</text><text fill="#FFFFFF" fill-opacity="1" font-family="Avenir Book,Avenir Book_MSFontService,sans-serif" font-style="normal" font-variant="normal" font-weight="700" font-stretch="normal" font-size="55" text-anchor="start" direction="ltr" writing-mode="lr-tb" unicode-bidi="normal" text-decoration="none" transform="matrix(1 0 0 1 1376.61 1140)">12</text><text fill="#FFFFFF" fill-opacity="1" font-family="Avenir Book,Avenir Book_MSFontService,sans-serif" font-style="normal" font-variant="normal" font-weight="700" font-stretch="normal" font-size="55" text-anchor="start" direction="ltr" writing-mode="lr-tb" unicode-bidi="normal" text-decoration="none" transform="matrix(1 0 0 1 1439.63 1140)">-</text><text fill="#FFFFFF" fill-opacity="1" font-family="Avenir Book,Avenir Book_MSFontService,sans-serif" font-style="normal" font-variant="normal" font-weight="700" font-stretch="normal" font-size="55" text-anchor="start" direction="ltr" writing-mode="lr-tb" unicode-bidi="normal" text-decoration="none" transform="matrix(1 0 0 1 1459.11 1140)">16</text><path d="M0 0 0.000360892 215.745" stroke="#7AA55D" stroke-width="16.0417" stroke-linecap="butt" stroke-linejoin="miter" stroke-miterlimit="8" stroke-opacity="1" fill="none" fill-rule="evenodd" transform="matrix(1 0 0 -1 991 1056.74)"/><rect x="927.5" y="999.5" width="133" height="38.9999" stroke="#D9F2D0" stroke-width="6.875" stroke-linecap="butt" stroke-linejoin="miter" stroke-miterlimit="8" stroke-opacity="1" fill="#8ED973" fill-opacity="1"/><path d="M0 0 0.000360892 215.745" stroke="#7AA55D" stroke-width="16.0417" stroke-linecap="butt" stroke-linejoin="miter" stroke-miterlimit="8" stroke-opacity="1" fill="none" fill-rule="evenodd" transform="matrix(1 0 0 -1 1147 1056.74)"/><rect x="1080.5" y="955.5" width="133" height="38.9998" stroke="#D9F2D0" stroke-width="6.875" stroke-linecap="butt" stroke-linejoin="miter" stroke-miterlimit="8" stroke-opacity="1" fill="#8ED973" fill-opacity="1"/><path d="M0 0 0.000360892 215.745" stroke="#7AA55D" stroke-width="16.0417" stroke-linecap="butt" stroke-linejoin="miter" stroke-miterlimit="8" stroke-opacity="1" fill="none" fill-rule="evenodd" transform="matrix(1 0 0 -1 1289 1056.74)"/><rect x="1225.5" y="846.5" width="133" height="38.9998" stroke="#D9F2D0" stroke-width="6.875" stroke-linecap="butt" stroke-linejoin="miter" stroke-miterlimit="8" stroke-opacity="1" fill="#8ED973" fill-opacity="1"/><path d="M0 0 0.000360892 215.745" stroke="#7AA55D" stroke-width="16.0417" stroke-linecap="butt" stroke-linejoin="miter" stroke-miterlimit="8" stroke-opacity="1" fill="none" fill-rule="evenodd" transform="matrix(1 0 0 -1 1450 1052.74)"/><rect x="1384.5" y="843.5" width="133" height="38.9998" stroke="#D9F2D0" stroke-width="6.875" stroke-linecap="butt" stroke-linejoin="miter" stroke-miterlimit="8" stroke-opacity="1" fill="#8ED973" fill-opacity="1"/><text fill="#843C0B" fill-opacity="1" font-family="Avenir Heavy,Avenir Heavy_MSFontService,sans-serif" font-style="normal" font-variant="normal" font-weight="900" font-stretch="normal" font-size="101" text-anchor="start" direction="ltr" writing-mode="lr-tb" unicode-bidi="normal" text-decoration="none" transform="matrix(1 0 0 1 179.691 1391)">1.</text><text fill="#843C0B" fill-opacity="1" font-family="Avenir Heavy,Avenir Heavy_MSFontService,sans-serif" font-style="normal" font-variant="normal" font-weight="900" font-stretch="normal" font-size="101" text-anchor="start" direction="ltr" writing-mode="lr-tb" unicode-bidi="normal" text-decoration="underline" transform="matrix(1 0 0 1 303.441 1391)">Set mood and transition of</text><text fill="#843C0B" fill-opacity="1" font-family="Avenir Heavy,Avenir Heavy_MSFontService,sans-serif" font-style="normal" font-variant="normal" font-weight="900" font-stretch="normal" font-size="101" text-anchor="start" direction="ltr" writing-mode="lr-tb" unicode-bidi="normal" text-decoration="underline" transform="matrix(1 0 0 1 591.366 1512)">its strength.</text><path d="M1731 600.501C1731 585.312 1743.31 573 1758.5 573L3414.5 573C3429.69 573 3442 585.312 3442 600.501L3442 710.499C3442 725.688 3429.69 738 3414.5 738L1758.5 738C1743.31 738 1731 725.688 1731 710.499Z" fill="#58A725" fill-rule="evenodd" fill-opacity="1"/><text fill="#FFFFFF" fill-opacity="1" font-family="Avenir Book,Avenir Book_MSFontService,sans-serif" font-style="normal" font-variant="normal" font-weight="700" font-stretch="normal" font-size="83" text-anchor="start" direction="ltr" writing-mode="lr-tb" unicode-bidi="normal" text-decoration="none" transform="matrix(1 0 0 1 1862.78 681)">Music Generation / Arrangement step</text><text fill="#385723" fill-opacity="1" font-family="MesloLGS NF,MesloLGS NF_MSFontService,sans-serif" font-style="normal" font-variant="normal" font-weight="700" font-stretch="normal" font-size="55" text-anchor="start" direction="ltr" writing-mode="lr-tb" unicode-bidi="normal" text-decoration="none" transform="matrix(1 0 0 1 1960.48 879)">|  bar  | bright |</text><text fill="#385723" fill-opacity="1" font-family="MesloLGS NF,MesloLGS NF_MSFontService,sans-serif" font-style="normal" font-variant="normal" font-weight="700" font-stretch="normal" font-size="55" text-anchor="start" direction="ltr" writing-mode="lr-tb" unicode-bidi="normal" text-decoration="none" transform="matrix(1 0 0 1 1960.48 945)">|</text><text fill="#385723" fill-opacity="1" font-family="MesloLGS NF,MesloLGS NF_MSFontService,sans-serif" font-style="normal" font-variant="normal" font-weight="700" font-stretch="normal" font-size="55" text-anchor="start" direction="ltr" writing-mode="lr-tb" unicode-bidi="normal" text-decoration="none" transform="matrix(1 0 0 1 1993.71 945)">-------</text><text fill="#385723" fill-opacity="1" font-family="MesloLGS NF,MesloLGS NF_MSFontService,sans-serif" font-style="normal" font-variant="normal" font-weight="700" font-stretch="normal" font-size="55" text-anchor="start" direction="ltr" writing-mode="lr-tb" unicode-bidi="normal" text-decoration="none" transform="matrix(1 0 0 1 2226.32 945)">|</text><text fill="#385723" fill-opacity="1" font-family="MesloLGS NF,MesloLGS NF_MSFontService,sans-serif" font-style="normal" font-variant="normal" font-weight="700" font-stretch="normal" font-size="55" text-anchor="start" direction="ltr" writing-mode="lr-tb" unicode-bidi="normal" text-decoration="none" transform="matrix(1 0 0 1 2259.54 945)">--------</text><text fill="#385723" fill-opacity="1" font-family="MesloLGS NF,MesloLGS NF_MSFontService,sans-serif" font-style="normal" font-variant="normal" font-weight="700" font-stretch="normal" font-size="55" text-anchor="start" direction="ltr" writing-mode="lr-tb" unicode-bidi="normal" text-decoration="none" transform="matrix(1 0 0 1 2525.38 945)">|</text><text fill="#385723" fill-opacity="1" font-family="MesloLGS NF,MesloLGS NF_MSFontService,sans-serif" font-style="normal" font-variant="normal" font-weight="700" font-stretch="normal" font-size="55" text-anchor="start" direction="ltr" writing-mode="lr-tb" unicode-bidi="normal" text-decoration="none" transform="matrix(1 0 0 1 1960.48 1011)">|  1</text><text fill="#385723" fill-opacity="1" font-family="MesloLGS NF,MesloLGS NF_MSFontService,sans-serif" font-style="normal" font-variant="normal" font-weight="700" font-stretch="normal" font-size="55" text-anchor="start" direction="ltr" writing-mode="lr-tb" unicode-bidi="normal" text-decoration="none" transform="matrix(1 0 0 1 2093.4 1011)">-</text><text fill="#385723" fill-opacity="1" font-family="MesloLGS NF,MesloLGS NF_MSFontService,sans-serif" font-style="normal" font-variant="normal" font-weight="700" font-stretch="normal" font-size="55" text-anchor="start" direction="ltr" writing-mode="lr-tb" unicode-bidi="normal" text-decoration="none" transform="matrix(1 0 0 1 2126.63 1011)">4  |  0.12  |</text><text fill="#385723" fill-opacity="1" font-family="MesloLGS NF,MesloLGS NF_MSFontService,sans-serif" font-style="normal" font-variant="normal" font-weight="700" font-stretch="normal" font-size="55" text-anchor="start" direction="ltr" writing-mode="lr-tb" unicode-bidi="normal" text-decoration="none" transform="matrix(1 0 0 1 1960.48 1077)">|  5</text><text fill="#385723" fill-opacity="1" font-family="MesloLGS NF,MesloLGS NF_MSFontService,sans-serif" font-style="normal" font-variant="normal" font-weight="700" font-stretch="normal" font-size="55" text-anchor="start" direction="ltr" writing-mode="lr-tb" unicode-bidi="normal" text-decoration="none" transform="matrix(1 0 0 1 2093.4 1077)">-</text><text fill="#385723" fill-opacity="1" font-family="MesloLGS NF,MesloLGS NF_MSFontService,sans-serif" font-style="normal" font-variant="normal" font-weight="700" font-stretch="normal" font-size="55" text-anchor="start" direction="ltr" writing-mode="lr-tb" unicode-bidi="normal" text-decoration="none" transform="matrix(1 0 0 1 2126.63 1077)">8  |  0.43  | </text><text fill="#385723" fill-opacity="1" font-family="MesloLGS NF,MesloLGS NF_MSFontService,sans-serif" font-style="normal" font-variant="normal" font-weight="700" font-stretch="normal" font-size="55" text-anchor="start" direction="ltr" writing-mode="lr-tb" unicode-bidi="normal" text-decoration="none" transform="matrix(1 0 0 1 1960.48 1143)">|  9</text><text fill="#385723" fill-opacity="1" font-family="MesloLGS NF,MesloLGS NF_MSFontService,sans-serif" font-style="normal" font-variant="normal" font-weight="700" font-stretch="normal" font-size="55" text-anchor="start" direction="ltr" writing-mode="lr-tb" unicode-bidi="normal" text-decoration="none" transform="matrix(1 0 0 1 2093.4 1143)">-</text><text fill="#385723" fill-opacity="1" font-family="MesloLGS NF,MesloLGS NF_MSFontService,sans-serif" font-style="normal" font-variant="normal" font-weight="700" font-stretch="normal" font-size="55" text-anchor="start" direction="ltr" writing-mode="lr-tb" unicode-bidi="normal" text-decoration="none" transform="matrix(1 0 0 1 2126.63 1143)">12 |  0.95  |</text><text fill="#385723" fill-opacity="1" font-family="MesloLGS NF,MesloLGS NF_MSFontService,sans-serif" font-style="normal" font-variant="normal" font-weight="700" font-stretch="normal" font-size="55" text-anchor="start" direction="ltr" writing-mode="lr-tb" unicode-bidi="normal" text-decoration="none" transform="matrix(1 0 0 1 1960.48 1209)">| 13</text><text fill="#385723" fill-opacity="1" font-family="MesloLGS NF,MesloLGS NF_MSFontService,sans-serif" font-style="normal" font-variant="normal" font-weight="700" font-stretch="normal" font-size="55" text-anchor="start" direction="ltr" writing-mode="lr-tb" unicode-bidi="normal" text-decoration="none" transform="matrix(1 0 0 1 2093.4 1209)">-</text><text fill="#385723" fill-opacity="1" font-family="MesloLGS NF,MesloLGS NF_MSFontService,sans-serif" font-style="normal" font-variant="normal" font-weight="700" font-stretch="normal" font-size="55" text-anchor="start" direction="ltr" writing-mode="lr-tb" unicode-bidi="normal" text-decoration="none" transform="matrix(1 0 0 1 2126.63 1209)">16 |  1.00  |</text><text fill="#3B7D23" fill-opacity="1" font-family="Avenir Book,Avenir Book_MSFontService,sans-serif" font-style="normal" font-variant="normal" font-weight="700" font-stretch="normal" font-size="92" text-anchor="start" direction="ltr" writing-mode="lr-tb" unicode-bidi="normal" text-decoration="none" transform="matrix(1 0 0 1 1817.84 1367)">Formatting the input</text><text fill="#3B7D23" fill-opacity="1" font-family="Avenir Book,Avenir Book_MSFontService,sans-serif" font-style="normal" font-variant="normal" font-weight="700" font-stretch="normal" font-size="92" text-anchor="start" direction="ltr" writing-mode="lr-tb" unicode-bidi="normal" text-decoration="none" transform="matrix(1 0 0 1 2036.08 1477)">into String</text><g><g><g><path d="M3072.25 911.875C3072.25 927.063 3029.16 939.375 2976 939.375 2922.84 939.375 2879.75 927.063 2879.75 911.875 2879.75 896.687 2922.84 884.375 2976 884.375 3029.16 884.375 3072.25 896.687 3072.25 911.875Z" fill="#538234" fill-rule="nonzero" fill-opacity="1"/><path d="M3044.75 980.625C3040.62 980.625 3037.87 977.875 3037.87 973.75 3037.87 969.625 3040.62 966.875 3044.75 966.875 3048.87 966.875 3051.62 969.625 3051.62 973.75 3051.62 977.875 3048.87 980.625 3044.75 980.625ZM2976 953.125C2923.06 953.125 2879.75 940.75 2879.75 925.625L2879.75 980.625C2879.75 995.75 2923.06 1008.13 2976 1008.13 3028.94 1008.13 3072.25 995.75 3072.25 980.625L3072.25 925.625C3072.25 940.75 3028.94 953.125 2976 953.125Z" fill="#538234" fill-rule="nonzero" fill-opacity="1"/><path d="M3044.75 1049.38C3040.62 1049.38 3037.87 1046.63 3037.87 1042.5 3037.87 1038.38 3040.62 1035.63 3044.75 1035.63 3048.87 1035.63 3051.62 1038.38 3051.62 1042.5 3051.62 1046.63 3048.87 1049.38 3044.75 1049.38ZM2976 1021.88C2923.06 1021.88 2879.75 1009.5 2879.75 994.375L2879.75 1049.38C2879.75 1064.5 2923.06 1076.88 2976 1076.88 3028.94 1076.88 3072.25 1064.5 3072.25 1049.38L3072.25 994.375C3072.25 1009.5 3028.94 1021.88 2976 1021.88Z" fill="#538234" fill-rule="nonzero" fill-opacity="1"/><path d="M3044.75 1118.13C3040.62 1118.13 3037.87 1115.38 3037.87 1111.25 3037.87 1107.13 3040.62 1104.38 3044.75 1104.38 3048.87 1104.38 3051.62 1107.13 3051.62 1111.25 3051.62 1115.38 3048.87 1118.13 3044.75 1118.13ZM2976 1090.63C2923.06 1090.63 2879.75 1078.25 2879.75 1063.13L2879.75 1118.13C2879.75 1133.25 2923.06 1145.63 2976 1145.63 3028.94 1145.63 3072.25 1133.25 3072.25 1118.13L3072.25 1063.13C3072.25 1078.25 3028.94 1090.63 2976 1090.63Z" fill="#538234" fill-rule="nonzero" fill-opacity="1"/></g></g></g><path d="M2623 1019.25 2732.38 1019.25 2732.38 1046.75 2623 1046.75ZM2718.63 991.75 2801.13 1033 2718.63 1074.25Z" fill="#385723" fill-rule="nonzero" fill-opacity="1"/><text fill="#538234" fill-opacity="1" font-family="Avenir Book,Avenir Book_MSFontService,sans-serif" font-style="normal" font-variant="normal" font-weight="400" font-stretch="normal" font-size="73" text-anchor="start" direction="ltr" writing-mode="lr-tb" unicode-bidi="normal" text-decoration="none" transform="matrix(1 0 0 1 2766.18 1261)">Input/Output</text><text fill="#538234" fill-opacity="1" font-family="Avenir Book,Avenir Book_MSFontService,sans-serif" font-style="normal" font-variant="normal" font-weight="400" font-stretch="normal" font-size="73" text-anchor="start" direction="ltr" writing-mode="lr-tb" unicode-bidi="normal" text-decoration="none" transform="matrix(1 0 0 1 2867.58 1349)">History</text><path d="M3187.95 1029.68 3324.7 1209.63 3302.8 1226.27 3166.05 1046.32ZM3338.27 1182.04 3355.35 1272.69 3272.59 1231.96Z" fill="#385723" fill-rule="nonzero" fill-opacity="1"/><path d="M12.4823-5.76669 99.09 181.7 74.1254 193.233-12.4823 5.76669ZM118.288 157.684 115.441 249.878 43.3941 192.285Z" fill="#385723" fill-rule="nonzero" fill-opacity="1" transform="matrix(-1 0 0 1 3317.44 1504)"/><g><g><g><path d="M312.188 196.563 285.594 150.313 285.594 148.386C287.906 84.4063 237.802 30.8334 173.823 28.5209 109.844 26.2084 56.2709 75.9271 53.9584 139.906 53.9584 142.604 53.9584 145.688 53.9584 148.386 53.9584 185 70.5313 219.302 99.4376 241.656L99.4376 339.167 221.229 339.167 221.229 292.917 240.115 292.917C265.167 292.917 285.594 272.49 285.594 247.438 285.594 247.052 285.594 247.052 285.594 246.667L285.594 223.542 302.552 223.542C312.573 222.386 321.438 210.823 312.188 196.563ZM71.3021 109.844 92.5001 109.844 92.5001 94.4271C88.2605 91.3438 87.4896 85.1771 90.573 80.9376 93.6563 76.698 99.823 75.9271 104.063 79.0105 108.302 82.0938 109.073 88.2605 105.99 92.5001 105.604 93.2709 104.833 94.0417 104.063 94.4271L104.063 109.844 119.479 109.844 119.479 136.823C123.719 139.906 124.49 146.073 121.406 150.313 118.323 154.552 112.156 155.323 107.917 152.24 103.677 149.156 102.906 142.99 105.99 138.75 106.375 137.979 107.146 137.208 107.917 136.823L107.917 121.406 67.8334 121.406C68.9896 117.552 69.7605 113.698 71.3021 109.844ZM178.448 174.979C173.052 174.979 168.813 170.74 168.813 165.344 168.813 164.958 168.813 164.188 168.813 163.802L158.792 153.781 142.604 169.969 142.604 198.49C146.844 201.573 147.615 207.74 144.531 211.979 141.448 216.219 135.281 216.99 131.042 213.906 126.802 210.823 126.031 204.656 129.115 200.417 129.5 199.646 130.271 198.875 131.042 198.49L131.042 194.636 105.219 194.636 87.1042 173.438C81.7084 173.823 77.0834 169.969 76.698 164.573 76.3125 159.177 80.1667 154.552 85.5626 154.167 90.9584 153.781 95.5834 157.636 95.9688 163.031 95.9688 163.802 95.9688 164.958 95.9688 165.729L110.615 183.073 131.042 183.073 131.042 165.344 150.698 145.688 138.75 133.354 138.75 63.5938C134.511 60.5105 133.74 54.3438 136.823 50.1042 139.906 45.8646 146.073 45.0938 150.313 48.1771 154.552 51.2604 155.323 57.4271 152.24 61.6667 151.854 62.4375 151.083 63.2084 150.313 63.5938L150.313 75.1563 181.146 75.1563 181.146 102.135C185.386 105.219 186.156 111.385 183.073 115.625 179.99 119.865 173.823 120.635 169.583 117.552 165.344 114.469 164.573 108.302 167.656 104.063 168.042 103.292 168.813 102.521 169.583 102.135L169.583 86.7188 150.313 86.7188 150.313 128.729 177.292 155.708C177.677 155.708 178.063 155.708 178.448 155.708 183.844 155.708 188.083 159.948 188.083 165.344 188.083 170.74 183.844 174.979 178.448 174.979ZM225.469 97.1251C220.073 97.1251 215.833 92.8855 215.833 87.4896 215.833 87.1042 215.833 87.1042 215.833 86.7188L200.417 72.8438 200.417 44.7084C204.271 45.8646 208.125 47.4063 211.979 48.9479L211.979 67.8334 223.542 78.2396C224.313 78.2396 224.698 78.2396 225.469 78.2396 230.865 78.2396 235.104 82.4792 235.104 87.8751 235.104 93.2709 230.865 97.1251 225.469 97.1251Z" fill="#538234" fill-rule="nonzero" fill-opacity="1" transform="matrix(1 0 0 1.0027 3330 1182)"/></g></g></g><text fill="#538234" fill-opacity="1" font-family="Avenir Book,Avenir Book_MSFontService,sans-serif" font-style="normal" font-variant="normal" font-weight="700" font-stretch="normal" font-size="92" text-anchor="start" direction="ltr" writing-mode="lr-tb" unicode-bidi="normal" text-decoration="none" transform="matrix(1 0 0 1 3390.69 1646)">LLMs</text><path d="M2.68747e-05-13.75 115.894-13.7498 115.894 13.7502-2.68747e-05 13.75ZM102.145-41.2498 184.644 0.000360892 102.144 41.2502Z" fill="#7AA55D" fill-rule="nonzero" fill-opacity="1" transform="matrix(-1 0 0 1 3858.64 1359)"/><text fill="#385723" fill-opacity="1" font-family="Avenir Book,Avenir Book_MSFontService,sans-serif" font-style="normal" font-variant="normal" font-weight="700" font-stretch="normal" font-size="64" text-anchor="start" direction="ltr" writing-mode="lr-tb" unicode-bidi="normal" text-decoration="none" transform="matrix(1 0 0 1 3720.56 1497)">Pre</text><text fill="#385723" fill-opacity="1" font-family="Avenir Book,Avenir Book_MSFontService,sans-serif" font-style="normal" font-variant="normal" font-weight="700" font-stretch="normal" font-size="64" text-anchor="start" direction="ltr" writing-mode="lr-tb" unicode-bidi="normal" text-decoration="none" transform="matrix(1 0 0 1 3817.38 1497)">-</text><text fill="#385723" fill-opacity="1" font-family="Avenir Book,Avenir Book_MSFontService,sans-serif" font-style="normal" font-variant="normal" font-weight="700" font-stretch="normal" font-size="64" text-anchor="start" direction="ltr" writing-mode="lr-tb" unicode-bidi="normal" text-decoration="none" transform="matrix(1 0 0 1 3671.01 1574)">instruct</text><g><g><g><path d="M56.302 200.729 56.302 34.2708 117.5 34.2708 117.5 85.677 178.698 85.677 178.698 200.729 56.302 200.729ZM132.187 40.3906 162.786 70.9895 132.187 70.9895 132.187 40.3906ZM132.187 19.5833 41.6145 19.5833 41.6145 215.416 193.385 215.416 193.385 73.4374 132.187 19.5833Z" fill="#538234" fill-rule="nonzero" fill-opacity="1" transform="matrix(1 0 0 1 3997 978)"/><path d="M70.9895 110.156 164.01 110.156 164.01 119.948 70.9895 119.948Z" fill="#538234" fill-rule="nonzero" fill-opacity="1" transform="matrix(1 0 0 1 3997 978)"/><path d="M70.9895 90.5728 102.812 90.5728 102.812 100.364 70.9895 100.364Z" fill="#538234" fill-rule="nonzero" fill-opacity="1" transform="matrix(1 0 0 1 3997 978)"/><path d="M70.9895 129.739 164.01 129.739 164.01 139.531 70.9895 139.531Z" fill="#538234" fill-rule="nonzero" fill-opacity="1" transform="matrix(1 0 0 1 3997 978)"/><path d="M70.9895 149.323 164.01 149.323 164.01 159.114 70.9895 159.114Z" fill="#538234" fill-rule="nonzero" fill-opacity="1" transform="matrix(1 0 0 1 3997 978)"/><path d="M70.9895 168.906 164.01 168.906 164.01 178.698 70.9895 178.698Z" fill="#538234" fill-rule="nonzero" fill-opacity="1" transform="matrix(1 0 0 1 3997 978)"/></g></g></g><text fill="#385723" fill-opacity="1" font-family="Avenir Book,Avenir Book_MSFontService,sans-serif" font-style="normal" font-variant="normal" font-weight="700" font-stretch="normal" font-size="73" text-anchor="start" direction="ltr" writing-mode="lr-tb" unicode-bidi="normal" text-decoration="none" transform="matrix(1 0 0 1 3940.56 1306)">Guideline</text><path d="M3941 1355 4275.85 1355" stroke="#7AA55D" stroke-width="13.75" stroke-linecap="butt" stroke-linejoin="miter" stroke-miterlimit="8" stroke-opacity="1" fill="none" fill-rule="evenodd"/><text fill="#7AA55D" fill-opacity="1" font-family="Avenir Book,Avenir Book_MSFontService,sans-serif" font-style="normal" font-variant="normal" font-weight="700" font-stretch="normal" font-size="50" text-anchor="start" direction="ltr" writing-mode="lr-tb" unicode-bidi="normal" text-decoration="none" transform="matrix(1 0 0 1 3904.15 1443)">“Following input,</text><text fill="#7AA55D" fill-opacity="1" font-family="Avenir Book,Avenir Book_MSFontService,sans-serif" font-style="normal" font-variant="normal" font-weight="700" font-stretch="normal" font-size="50" text-anchor="start" direction="ltr" writing-mode="lr-tb" unicode-bidi="normal" text-decoration="none" transform="matrix(1 0 0 1 3912.47 1503)">compose music”</text><text fill="#7AA55D" fill-opacity="1" font-family="Avenir Book,Avenir Book_MSFontService,sans-serif" font-style="normal" font-variant="normal" font-weight="700" font-stretch="normal" font-size="50" text-anchor="start" direction="ltr" writing-mode="lr-tb" unicode-bidi="normal" text-decoration="none" transform="matrix(1 0 0 1 4090.07 1564)">+</text><text fill="#7AA55D" fill-opacity="1" font-family="Avenir Book,Avenir Book_MSFontService,sans-serif" font-style="normal" font-variant="normal" font-weight="700" font-stretch="normal" font-size="50" text-anchor="start" direction="ltr" writing-mode="lr-tb" unicode-bidi="normal" text-decoration="none" transform="matrix(1 0 0 1 3973.2 1624)">instructions</text><text fill="#7AA55D" fill-opacity="1" font-family="Avenir Book,Avenir Book_MSFontService,sans-serif" font-style="normal" font-variant="normal" font-weight="700" font-stretch="normal" font-size="50" text-anchor="start" direction="ltr" writing-mode="lr-tb" unicode-bidi="normal" text-decoration="none" transform="matrix(1 0 0 1 3950.28 1685)">for stabilizing</text><text fill="#7AA55D" fill-opacity="1" font-family="Avenir Book,Avenir Book_MSFontService,sans-serif" font-style="normal" font-variant="normal" font-weight="700" font-stretch="normal" font-size="50" text-anchor="start" direction="ltr" writing-mode="lr-tb" unicode-bidi="normal" text-decoration="none" transform="matrix(1 0 0 1 4016.44 1745)">editing.</text><g><g><g><path d="M2913.52 1862.29 2913.52 1659.71 2988 1659.71 2988 1722.27 3062.48 1722.27 3062.48 1862.29 2913.52 1862.29ZM3005.87 1667.16 3043.11 1704.4 3005.87 1704.4 3005.87 1667.16ZM3005.87 1641.83 2895.65 1641.83 2895.65 1880.17 3080.35 1880.17 3080.35 1707.38 3005.87 1641.83Z" fill="#843C0B" fill-rule="nonzero" fill-opacity="1"/><path d="M2931.4 1752.06 3044.6 1752.06 3044.6 1763.98 2931.4 1763.98Z" fill="#843C0B" fill-rule="nonzero" fill-opacity="1"/><path d="M2931.4 1728.23 2970.12 1728.23 2970.12 1740.15 2931.4 1740.15Z" fill="#843C0B" fill-rule="nonzero" fill-opacity="1"/><path d="M2931.4 1775.9 3044.6 1775.9 3044.6 1787.81 2931.4 1787.81Z" fill="#843C0B" fill-rule="nonzero" fill-opacity="1"/><path d="M2931.4 1799.73 3044.6 1799.73 3044.6 1811.65 2931.4 1811.65Z" fill="#843C0B" fill-rule="nonzero" fill-opacity="1"/><path d="M2931.4 1823.56 3044.6 1823.56 3044.6 1835.48 2931.4 1835.48Z" fill="#843C0B" fill-rule="nonzero" fill-opacity="1"/></g></g></g><text fill="#3B7D23" fill-opacity="1" font-family="Avenir Book,Avenir Book_MSFontService,sans-serif" font-style="normal" font-variant="normal" font-weight="700" font-stretch="normal" font-size="92" text-anchor="start" direction="ltr" writing-mode="lr-tb" unicode-bidi="normal" text-decoration="none" transform="matrix(1 0 0 1 2659.99 2023)">Modified Music</text><text fill="#3B7D23" fill-opacity="1" font-family="Avenir Book,Avenir Book_MSFontService,sans-serif" font-style="normal" font-variant="normal" font-weight="700" font-stretch="normal" font-size="92" text-anchor="start" direction="ltr" writing-mode="lr-tb" unicode-bidi="normal" text-decoration="none" transform="matrix(1 0 0 1 2703.56 2133)">in text format</text><g><g><g><path d="M3106.82 1770.48C3103.15 1768.09 3100.23 1764.7 3098.42 1760.71L3098.42 1757.01C3098.42 1753.28 3095.4 1750.26 3091.68 1750.26 3087.95 1750.26 3084.93 1753.28 3084.93 1757.01L3084.93 1859.57C3078.37 1858.45 3071.64 1859.12 3065.43 1861.5 3050.71 1866.83 3041.67 1879.13 3045.21 1888.94 3048.76 1898.75 3063.6 1902.43 3078.32 1897.05 3088.57 1893.25 3096.03 1886.24 3098.42 1878.88L3098.42 1805.88C3099.67 1806.95 3101.02 1807.91 3102.43 1808.75 3125.05 1822.13 3112.55 1843.84 3123.65 1843.84 3137.62 1843.96 3138.2 1791.39 3106.82 1770.48Z" fill="#ED7D31" fill-rule="nonzero" fill-opacity="1"/></g></g></g><rect x="2011.5" y="1724.5" width="189" height="43" stroke="#C5560E" stroke-width="6.875" stroke-linecap="butt" stroke-linejoin="miter" stroke-miterlimit="8" stroke-opacity="1" fill="#ED7D31" fill-opacity="1"/><rect x="2203.5" y="1670.5" width="57" height="49.9999" stroke="#C5560E" stroke-width="6.875" stroke-linecap="butt" stroke-linejoin="miter" stroke-miterlimit="8" stroke-opacity="1" fill="#ED7D31" fill-opacity="1"/><rect x="2260.5" y="1785.5" width="234" height="35.0001" stroke="#C5560E" stroke-width="6.875" stroke-linecap="butt" stroke-linejoin="miter" stroke-miterlimit="8" stroke-opacity="1" fill="#ED7D31" fill-opacity="1"/><text fill="#3B7D23" fill-opacity="1" font-family="Avenir Book,Avenir Book_MSFontService,sans-serif" font-style="normal" font-variant="normal" font-weight="700" font-stretch="normal" font-size="92" text-anchor="start" direction="ltr" writing-mode="lr-tb" unicode-bidi="normal" text-decoration="none" transform="matrix(1 0 0 1 1983.48 2014)">Converting it</text><text fill="#3B7D23" fill-opacity="1" font-family="Avenir Book,Avenir Book_MSFontService,sans-serif" font-style="normal" font-variant="normal" font-weight="700" font-stretch="normal" font-size="92" text-anchor="start" direction="ltr" writing-mode="lr-tb" unicode-bidi="normal" text-decoration="none" transform="matrix(1 0 0 1 2062.82 2124)">into MIDI</text><path d="M2.37606e-05-13.75 140.094-13.7498 140.094 13.7502-2.37606e-05 13.75ZM126.344-41.2498 208.844 0.000360892 126.344 41.2502Z" fill="#385723" fill-rule="nonzero" fill-opacity="1" transform="matrix(-1 0 0 1 2789.84 1744)"/><path d="M7.44792-1.70232e-05 7.44819 120.657-7.44764 120.657-7.44792 1.70232e-05ZM22.344 113.209 0.000360892 157.896-22.3435 113.209Z" fill="#7AA55D" fill-rule="nonzero" fill-opacity="1" transform="matrix(1 0 0 -1 2983.5 1570.4)"/><path d="M5.96323e-06-13.75 763.395-13.7497 763.395 13.7503-5.96323e-06 13.75ZM749.645-41.2497 832.145 0.000360892 749.645 41.2503Z" fill="#385723" fill-rule="nonzero" fill-opacity="1" transform="matrix(-1 0 0 1 1910.14 1746)"/><g><g><g><path d="M238.109 71.2708 225.475 83.9051C265.646 124.076 265.646 189.515 225.475 229.686L238.109 242.321C285.407 195.347 285.407 118.569 238.109 71.2708Z" fill="#ED7D31" fill-rule="nonzero" fill-opacity="1" transform="matrix(-1 0 0 1.00965 1030 1596)"/><path d="M212.516 96.5395 199.882 109.174C226.123 135.414 226.123 177.853 199.882 204.418L212.516 217.052C245.884 183.684 245.884 129.907 212.516 96.5395Z" fill="#ED7D31" fill-rule="nonzero" fill-opacity="1" transform="matrix(-1 0 0 1.00965 1030 1596)"/><path d="M187.572 122.456 174.937 135.091C187.248 147.401 187.248 167.162 174.937 179.473L187.572 192.107C207.009 172.67 207.009 141.57 187.572 122.456Z" fill="#ED7D31" fill-rule="nonzero" fill-opacity="1" transform="matrix(-1 0 0 1.00965 1030 1596)"/><path d="M11.3385 112.089 11.3385 198.91 74.1864 198.91 155.5 265.646 155.5 45.3541 74.1864 112.089Z" fill="#ED7D31" fill-rule="nonzero" fill-opacity="1" transform="matrix(-1 0 0 1.00965 1030 1596)"/></g></g></g><path d="M13.75-1.59282e-05 13.7503 242.79-13.7497 242.79-13.75 1.59282e-05ZM41.2503 229.04 0.000360892 311.54-41.2497 229.04Z" fill="#385723" fill-rule="nonzero" fill-opacity="1" transform="matrix(1 0 0 -1 287 1766.54)"/><text fill="#843C0B" fill-opacity="1" font-family="Avenir Heavy,Avenir Heavy_MSFontService,sans-serif" font-style="normal" font-variant="normal" font-weight="900" font-stretch="normal" font-size="101" text-anchor="start" direction="ltr" writing-mode="lr-tb" unicode-bidi="normal" text-decoration="none" transform="matrix(1 0 0 1 3185.44 886)">2. </text><text fill="#843C0B" fill-opacity="1" font-family="Avenir Heavy,Avenir Heavy_MSFontService,sans-serif" font-style="normal" font-variant="normal" font-weight="900" font-stretch="normal" font-size="101" text-anchor="start" direction="ltr" writing-mode="lr-tb" unicode-bidi="normal" text-decoration="underline" transform="matrix(1 0 0 1 3304.6 886)">Ask the LLM to edit</text><text fill="#843C0B" fill-opacity="1" font-family="Avenir Heavy,Avenir Heavy_MSFontService,sans-serif" font-style="normal" font-variant="normal" font-weight="900" font-stretch="normal" font-size="101" text-anchor="start" direction="ltr" writing-mode="lr-tb" unicode-bidi="normal" text-decoration="none" transform="matrix(1 0 0 1 3558.39 1992)">3. </text><text fill="#843C0B" fill-opacity="1" font-family="Avenir Heavy,Avenir Heavy_MSFontService,sans-serif" font-style="normal" font-variant="normal" font-weight="900" font-stretch="normal" font-size="101" text-anchor="start" direction="ltr" writing-mode="lr-tb" unicode-bidi="normal" text-decoration="underline" transform="matrix(1 0 0 1 3677.56 1992)">Interpret</text><text fill="#843C0B" fill-opacity="1" font-family="Avenir Heavy,Avenir Heavy_MSFontService,sans-serif" font-style="normal" font-variant="normal" font-weight="900" font-stretch="normal" font-size="101" text-anchor="start" direction="ltr" writing-mode="lr-tb" unicode-bidi="normal" text-decoration="underline" transform="matrix(1 0 0 1 3412 2113)">Answer from LLM</text><text fill="#843C0B" fill-opacity="1" font-family="Avenir Heavy,Avenir Heavy_MSFontService,sans-serif" font-style="normal" font-variant="normal" font-weight="900" font-stretch="normal" font-size="101" text-anchor="start" direction="ltr" writing-mode="lr-tb" unicode-bidi="normal" text-decoration="none" transform="matrix(1 0 0 1 416.082 2016)">4. </text><text fill="#843C0B" fill-opacity="1" font-family="Avenir Heavy,Avenir Heavy_MSFontService,sans-serif" font-style="normal" font-variant="normal" font-weight="900" font-stretch="normal" font-size="101" text-anchor="start" direction="ltr" writing-mode="lr-tb" unicode-bidi="normal" text-decoration="underline" transform="matrix(1 0 0 1 535.248 2016)">Listen</text><text fill="#843C0B" fill-opacity="1" font-family="Avenir Heavy,Avenir Heavy_MSFontService,sans-serif" font-style="normal" font-variant="normal" font-weight="900" font-stretch="normal" font-size="101" text-anchor="start" direction="ltr" writing-mode="lr-tb" unicode-bidi="normal" text-decoration="underline" transform="matrix(1 0 0 1 842.905 2016)">the music</text><text fill="#843C0B" fill-opacity="1" font-family="Avenir Heavy,Avenir Heavy_MSFontService,sans-serif" font-style="normal" font-variant="normal" font-weight="900" font-stretch="normal" font-size="101" text-anchor="start" direction="ltr" writing-mode="lr-tb" unicode-bidi="normal" text-decoration="underline" transform="matrix(1 0 0 1 244.78 2137)">and adjust the parameter.</text><path d="M0 0 402.387 0.000360892" stroke="#385723" stroke-width="27.5" stroke-linecap="butt" stroke-linejoin="miter" stroke-miterlimit="8" stroke-opacity="1" fill="none" fill-rule="evenodd" transform="matrix(-1 0 0 1 688.387 1753)"/></g></g></svg>